<svg xmlns="http://www.w3.org/2000/svg" width="190.688" height="34.875" viewBox="0 0 190.688 34.875">
  <metadata><?xpacket begin="﻿" id="W5M0MpCehiHzreSzNTczkc9d"?>
<x:xmpmeta xmlns:x="adobe:ns:meta/" x:xmptk="Adobe XMP Core 5.6-c140 79.160451, 2017/05/06-01:08:21        ">
   <rdf:RDF xmlns:rdf="http://www.w3.org/1999/02/22-rdf-syntax-ns#">
      <rdf:Description rdf:about=""/>
   </rdf:RDF>
</x:xmpmeta>
                                                                                                    
                                                                                                    
                                                                                                    
                                                                                                    
                                                                                                    
                                                                                                    
                                                                                                    
                                                                                                    
                                                                                                    
                                                                                                    
                                                                                                    
                                                                                                    
                                                                                                    
                                                                                                    
                                                                                                    
                                                                                                    
                                                                                                    
                                                                                                    
                                                                                                    
                                                                                                    
                           
<?xpacket end="w"?></metadata>
<defs>
    <style>
      .cls-1 {
        fill: #fff;
        fill-rule: evenodd;
      }
    </style>
  </defs>
  <path id="LOGO" class="cls-1" d="M253.4,49.541c-5.72,0-9.274,3-9.274,7.843s3.554,7.842,9.274,7.842,9.268-3,9.268-7.842S259.117,49.541,253.4,49.541Zm5.339,7.845c0,2.731-2.046,4.428-5.339,4.428-3.347,0-5.345-1.655-5.345-4.428,0-2.734,2.047-4.433,5.342-4.433S258.739,54.652,258.739,57.385Zm-27.073-7.347h-9.545v3.483h6.2V64.728h3.716V53.522h6.2V50.039h-6.57Zm-70.391,0H160.6l-0.111.14-5.662,7.108-5.663-7.108-0.111-.14h-7.243v1.4l0.181,0.108,3.042,1.817V64.728h3.717V55.443L154.54,62.6l0.288,0.354,0.287-.354,5.79-7.156v9.285h3.716V50.039h-3.346Zm129.194,0h-3.65l-0.111.14-5.662,7.108-5.662-7.108-0.111-.14h-7.244v1.4l0.181,0.108,3.043,1.817V64.728h3.716V55.443l5.79,7.156,0.287,0.354,0.287-.354,5.79-7.156v9.285h3.716V50.039h-0.37Zm-106.335.2-0.1-.2H175.5v1.394l0.177,0.108,2.735,1.684L172.57,64.18l-0.292.548h4.312l0.1-.2,1.165-2.288h8.427l1.165,2.288,0.1,0.2h4.312l-0.292-.548Zm0.5,8.769h-5.131l2.565-5.037Zm27.549,0.59a4.763,4.763,0,0,0,3.471-4.721c0-3.072-2.221-4.834-6.094-4.834H196.3v1.4l0.18,0.108,3.043,1.817V64.728h3.716V60h4.6l3.936,4.6,0.111,0.13h4.685l-0.524-.614Zm-8.948-6.321h6.077c0.785,0,2.61.182,2.61,1.865,0,0.756-.3,1.625-2.61,1.625h-6.077v-3.49ZM100.16,43.068V63.981l6.942,6.971,6.941,6.971V57.009L107.1,50.039h13.883V70.952l6.942-6.971V43.068H100.16Z" transform="translate(-100.156 -43.063)"/>
</svg>
